<svg xmlns="http://www.w3.org/2000/svg" width="1400" height="840" viewBox="0 0 1400 840">
  <defs>
    <linearGradient id="bg" x1="0" y1="0" x2="1" y2="1">
      <stop offset="0%" stop-color="#08141f"/>
      <stop offset="100%" stop-color="#0f2435"/>
    </linearGradient>
    <linearGradient id="accent" x1="0" y1="0" x2="1" y2="0">
      <stop offset="0%" stop-color="#2ec5ff"/>
      <stop offset="100%" stop-color="#7bf1a8"/>
    </linearGradient>
  </defs>
  <rect width="1400" height="840" fill="url(#bg)"/>
  <rect x="80" y="70" width="1240" height="700" rx="24" fill="#0d1f2d" stroke="#21435a"/>
  <rect x="80" y="70" width="1240" height="62" rx="24" fill="#11293b"/>
  <circle cx="120" cy="101" r="8" fill="#ff7373"/><circle cx="146" cy="101" r="8" fill="#ffd45a"/><circle cx="172" cy="101" r="8" fill="#7bf1a8"/>
  <text x="220" y="108" fill="#d9ebf8" font-size="22" font-family="Sora, Segoe UI, sans-serif" font-weight="700">Emara AI Assistant</text>

  <rect x="120" y="170" width="1160" height="90" rx="14" fill="#122b3f" stroke="#28516d"/>
  <text x="150" y="225" fill="#cfe2f0" font-size="28" font-family="Space Grotesk, Segoe UI, sans-serif">Why is my exterior batch cracking after drying?</text>

  <rect x="160" y="300" width="1080" height="290" rx="20" fill="#103527" stroke="#2f725a"/>
  <text x="190" y="355" fill="#d7ffea" font-size="30" font-family="Sora, Segoe UI, sans-serif" font-weight="700">Root Cause Analysis</text>
  <text x="190" y="405" fill="#d4efe2" font-size="24" font-family="Space Grotesk, Segoe UI, sans-serif">- High binder rigidity at current curing profile</text>
  <text x="190" y="443" fill="#d4efe2" font-size="24" font-family="Space Grotesk, Segoe UI, sans-serif">- Solvent ratio below recommended threshold</text>
  <text x="190" y="481" fill="#d4efe2" font-size="24" font-family="Space Grotesk, Segoe UI, sans-serif">- Humidity variance increased film stress</text>
  <text x="190" y="535" fill="#c6ffe2" font-size="24" font-family="Space Grotesk, Segoe UI, sans-serif">Suggested fix: +2.5% plasticizer, rebalance solvent, staged cure</text>

  <rect x="120" y="632" width="380" height="96" rx="16" fill="#0f2738" stroke="#2e5872"/>
  <text x="150" y="676" fill="#d8ebf8" font-size="24" font-family="Sora, Segoe UI, sans-serif" font-weight="700">Confidence</text>
  <text x="150" y="710" fill="#8bd7ff" font-size="28" font-family="Space Grotesk, Segoe UI, sans-serif">91%</text>

  <rect x="530" y="632" width="750" height="96" rx="16" fill="#0f2738" stroke="#2e5872"/>
  <text x="560" y="676" fill="#d8ebf8" font-size="24" font-family="Sora, Segoe UI, sans-serif" font-weight="700">Grounded Sources</text>
  <text x="560" y="710" fill="#8bd7ff" font-size="28" font-family="Space Grotesk, Segoe UI, sans-serif">1,432 technical documents + 88 production logs</text>

  <rect x="980" y="96" width="280" height="10" rx="5" fill="url(#accent)"/>
</svg>